<?xml version="1.0" encoding="utf-8"?>
<svg viewBox="282.86 375.509 665.614 536.85" width="665.614px" height="536.85px" xmlns="http://www.w3.org/2000/svg">
  <g transform="matrix(0.88, 0, 0, 0.88, 389.230011, 721.919983)">
    <path style="stroke: none; stroke-width: 1; stroke-dasharray: none; stroke-linecap: butt; stroke-dashoffset: 0; stroke-linejoin: miter; stroke-miterlimit: 4; fill: rgb(255,255,255); fill-rule: nonzero; opacity: 1;" vector-effect="non-scaling-stroke" transform=" translate(-121.87, -392.43)" d="M 77.9908 534.435 L 165.742 534.435 L 165.742 250.43199999999996 L 77.9908 250.43199999999996 z" stroke-linecap="round"/>
  </g>
  <g transform="matrix(0.88, 0, 0, 0.88, 389.230011, 721.919983)">
    <path style="stroke: none; stroke-width: 1; stroke-dasharray: none; stroke-linecap: butt; stroke-dashoffset: 0; stroke-linejoin: miter; stroke-miterlimit: 4; fill: rgb(123,63,129); fill-rule: nonzero; opacity: 1;" vector-effect="non-scaling-stroke" transform=" translate(-121.87, -392.43)" d="M 77.9908 534.435 L 165.742 534.435 L 165.742 250.43199999999996 L 77.9908 250.43199999999996 z" stroke-linecap="round"/>
  </g>
  <g transform="matrix(0.88, 0, 0, 0.88, 317.559998, 721.919983)">
    <path style="stroke: none; stroke-width: 1; stroke-dasharray: none; stroke-linecap: butt; stroke-dashoffset: 0; stroke-linejoin: miter; stroke-miterlimit: 4; fill: rgb(60,62,86); fill-rule: nonzero; opacity: 1;" vector-effect="non-scaling-stroke" transform=" translate(-40.75, -392.43)" d="M 3.5038 534.389 L 77.9911 534.389 L 77.9911 250.47700000000003 L 3.5037999999999982 250.47700000000003 z" stroke-linecap="round"/>
  </g>
  <g transform="matrix(0.88, 0, 0, 0.88, 390.839996, 633.650024)">
    <path style="stroke: none; stroke-width: 1; stroke-dasharray: none; stroke-linecap: butt; stroke-dashoffset: 0; stroke-linejoin: miter; stroke-miterlimit: 4; fill: rgb(255,255,255); fill-rule: nonzero; opacity: 1;" vector-effect="non-scaling-stroke" transform=" translate(-123.68, -292.52)" d="M 88.4792 323.11 L 158.883 323.11 L 158.883 261.932 L 88.4792 261.932 z" stroke-linecap="round"/>
  </g>
  <g transform="matrix(0.88, 0, 0, 0.88, 390.839996, 693.830017)">
    <path style="stroke: none; stroke-width: 1; stroke-dasharray: none; stroke-linecap: butt; stroke-dashoffset: 0; stroke-linejoin: miter; stroke-miterlimit: 4; fill: rgb(255,255,255); fill-rule: nonzero; opacity: 1;" vector-effect="non-scaling-stroke" transform=" translate(-123.68, -360.64)" d="M 88.4792 391.227 L 158.883 391.227 L 158.883 330.049 L 88.4792 330.049 z" stroke-linecap="round"/>
  </g>
  <g transform="matrix(0.88, 0, 0, 0.88, 390.839996, 693.830017)">
    <path style="stroke: none; stroke-width: 1; stroke-dasharray: none; stroke-linecap: butt; stroke-dashoffset: 0; stroke-linejoin: miter; stroke-miterlimit: 4; fill: rgb(184,153,188); fill-rule: nonzero; opacity: 0.98;" vector-effect="non-scaling-stroke" transform=" translate(-123.68, -360.64)" d="M 88.4792 391.227 L 158.883 391.227 L 158.883 330.049 L 88.4792 330.049 z" stroke-linecap="round"/>
  </g>
  <g transform="matrix(0.88, 0, 0, 0.88, 390.839996, 754.01001)">
    <path style="stroke: none; stroke-width: 1; stroke-dasharray: none; stroke-linecap: butt; stroke-dashoffset: 0; stroke-linejoin: miter; stroke-miterlimit: 4; fill: rgb(255,255,255); fill-rule: nonzero; opacity: 1;" vector-effect="non-scaling-stroke" transform=" translate(-123.68, -428.75)" d="M 88.4792 459.344 L 158.883 459.344 L 158.883 398.166 L 88.4792 398.166 z" stroke-linecap="round"/>
  </g>
  <g transform="matrix(0.88, 0, 0, 0.88, 390.839996, 814.200012)">
    <path style="stroke: none; stroke-width: 1; stroke-dasharray: none; stroke-linecap: butt; stroke-dashoffset: 0; stroke-linejoin: miter; stroke-miterlimit: 4; fill: rgb(255,255,255); fill-rule: nonzero; opacity: 1;" vector-effect="non-scaling-stroke" transform=" translate(-123.68, -496.87)" d="M 88.4792 527.461 L 158.883 527.461 L 158.883 466.283 L 88.4792 466.283 z" stroke-linecap="round"/>
  </g>
  <g transform="matrix(0.88, 0, 0, 0.88, 390.839996, 633.650024)">
    <path style="stroke: none; stroke-width: 1; stroke-dasharray: none; stroke-linecap: butt; stroke-dashoffset: 0; stroke-linejoin: miter; stroke-miterlimit: 4; fill: rgb(137,85,143); fill-rule: nonzero; opacity: 0.6;" vector-effect="non-scaling-stroke" transform=" translate(-123.68, -292.52)" d="M 88.4792 323.11 L 158.883 323.11 L 158.883 261.932 L 88.4792 261.932 z" stroke-linecap="round"/>
  </g>
  <g transform="matrix(0.88, 0, 0, 0.88, 390.839996, 754.01001)">
    <path style="stroke: none; stroke-width: 1; stroke-dasharray: none; stroke-linecap: butt; stroke-dashoffset: 0; stroke-linejoin: miter; stroke-miterlimit: 4; fill: rgb(184,153,188); fill-rule: nonzero; opacity: 1;" vector-effect="non-scaling-stroke" transform=" translate(-123.68, -428.75)" d="M 88.4792 459.344 L 158.883 459.344 L 158.883 398.166 L 88.4792 398.166 z" stroke-linecap="round"/>
  </g>
  <g transform="matrix(0.88, 0, 0, 0.88, 390.839996, 814.200012)">
    <path style="stroke: none; stroke-width: 1; stroke-dasharray: none; stroke-linecap: butt; stroke-dashoffset: 0; stroke-linejoin: miter; stroke-miterlimit: 4; fill: rgb(185,155,189); fill-rule: nonzero; opacity: 1;" vector-effect="non-scaling-stroke" transform=" translate(-123.68, -496.87)" d="M 88.4792 527.461 L 158.883 527.461 L 158.883 466.283 L 88.4792 466.283 z" stroke-linecap="round"/>
  </g>
  <g transform="matrix(0.88, 0, 0, 0.88, 393.01001, 616.599976)">
    <path style="stroke: none; stroke-width: 1; stroke-dasharray: none; stroke-linecap: butt; stroke-dashoffset: 0; stroke-linejoin: miter; stroke-miterlimit: 4; fill: rgb(255,255,255); fill-rule: nonzero; opacity: 1;" vector-effect="non-scaling-stroke" transform=" translate(-126.13, -273.23)" d="M 126.132 275.674 C 127.483 275.674 128.578 274.57899999999995 128.578 273.22799999999995 C 128.578 271.87699999999995 127.483 270.7819999999999 126.132 270.7819999999999 C 124.78200000000001 270.7819999999999 123.68700000000001 271.87699999999995 123.68700000000001 273.22799999999995 C 123.68700000000001 274.57899999999995 124.78200000000001 275.674 126.132 275.674 z" stroke-linecap="round"/>
  </g>
  <g transform="matrix(0.88, 0, 0, 0.88, 393.01001, 677.47998)">
    <path style="stroke: none; stroke-width: 1; stroke-dasharray: none; stroke-linecap: butt; stroke-dashoffset: 0; stroke-linejoin: miter; stroke-miterlimit: 4; fill: rgb(255,255,255); fill-rule: nonzero; opacity: 1;" vector-effect="non-scaling-stroke" transform=" translate(-126.13, -342.13)" d="M 126.132 344.576 C 127.483 344.576 128.578 343.481 128.578 342.13 C 128.578 340.779 127.483 339.68399999999997 126.132 339.68399999999997 C 124.78200000000001 339.68399999999997 123.68700000000001 340.779 123.68700000000001 342.13 C 123.68700000000001 343.481 124.78200000000001 344.576 126.132 344.576 z" stroke-linecap="round"/>
  </g>
  <g transform="matrix(0.88, 0, 0, 0.88, 393.01001, 738.359985)">
    <path style="stroke: none; stroke-width: 1; stroke-dasharray: none; stroke-linecap: butt; stroke-dashoffset: 0; stroke-linejoin: miter; stroke-miterlimit: 4; fill: rgb(255,255,255); fill-rule: nonzero; opacity: 1;" vector-effect="non-scaling-stroke" transform=" translate(-126.13, -411.04)" d="M 126.132 413.489 C 127.483 413.489 128.578 412.39399999999995 128.578 411.04299999999995 C 128.578 409.6929999999999 127.483 408.59799999999996 126.132 408.59799999999996 C 124.78200000000001 408.59799999999996 123.68700000000001 409.693 123.68700000000001 411.04299999999995 C 123.68700000000001 412.39399999999995 124.78200000000001 413.489 126.132 413.489 z" stroke-linecap="round"/>
  </g>
  <g transform="matrix(0.88, 0, 0, 0.88, 393.01001, 799.23999)">
    <path style="stroke: none; stroke-width: 1; stroke-dasharray: none; stroke-linecap: butt; stroke-dashoffset: 0; stroke-linejoin: miter; stroke-miterlimit: 4; fill: rgb(255,255,255); fill-rule: nonzero; opacity: 1;" vector-effect="non-scaling-stroke" transform=" translate(-126.13, -479.95)" d="M 126.132 482.391 C 127.483 482.391 128.578 481.296 128.578 479.945 C 128.578 478.59499999999997 127.483 477.5 126.132 477.5 C 124.78200000000001 477.5 123.68700000000001 478.595 123.68700000000001 479.945 C 123.68700000000001 481.296 124.78200000000001 482.391 126.132 482.391 z" stroke-linecap="round"/>
  </g>
  <g transform="matrix(0.88, 0, 0, 0.99, 423.519989, 875.570007)">
    <path style="stroke: none; stroke-width: 1; stroke-dasharray: none; stroke-linecap: butt; stroke-dashoffset: 0; stroke-linejoin: miter; stroke-miterlimit: 4; fill: rgb(60,62,86); fill-rule: nonzero; opacity: 1;" vector-effect="non-scaling-stroke" transform=" translate(-160.67, -562.92)" d="M 155.595 591.403 L 165.742 591.403 L 165.742 534.434 L 155.595 534.434 z" stroke-linecap="round"/>
  </g>
  <g transform="matrix(0.88, 0, 0, 0.96, 355.26001, 874.809998)">
    <path style="stroke: none; stroke-width: 1; stroke-dasharray: none; stroke-linecap: butt; stroke-dashoffset: 0; stroke-linejoin: miter; stroke-miterlimit: 4; fill: rgb(60,62,86); fill-rule: nonzero; opacity: 1;" vector-effect="non-scaling-stroke" transform=" translate(-83.42, -562.92)" d="M 78.3437 591.403 L 88.4907 591.403 L 88.4907 534.434 L 78.3437 534.434 z" stroke-linecap="round"/>
  </g>
  <g transform="matrix(0.88, 0, 0, 0.98, 290.089996, 875.320007)">
    <path style="stroke: none; stroke-width: 1; stroke-dasharray: none; stroke-linecap: butt; stroke-dashoffset: 0; stroke-linejoin: miter; stroke-miterlimit: 4; fill: rgb(60,62,86); fill-rule: nonzero; opacity: 1;" vector-effect="non-scaling-stroke" transform=" translate(-9.66, -562.92)" d="M 4.58431 591.403 L 14.731300000000001 591.403 L 14.731300000000001 534.434 L 4.58431 534.434 z" stroke-linecap="round"/>
  </g>
  <g transform="matrix(0.88, 0, 0, 0.88, 766.820007, 860.48999)">
    <path style="stroke: none; stroke-width: 1; stroke-dasharray: none; stroke-linecap: butt; stroke-dashoffset: 0; stroke-linejoin: miter; stroke-miterlimit: 4; fill: rgb(123,63,129); fill-rule: nonzero; opacity: 1;" vector-effect="non-scaling-stroke" transform=" translate(-549.23, -542.26)" d="M 589.562 495.041 L 508.898 495.041 L 523.4250000000001 581.279 C 523.7280000000001 583.079 524.5350000000001 584.756 525.754 586.115 C 526.972 587.474 528.551 588.46 530.307 588.957 L 530.591 589.037 C 530.83 589.094 531.058 589.173 531.308 589.219 C 531.848 589.3240000000001 532.396 589.3850000000001 532.946 589.4010000000001 L 532.946 589.4810000000001 L 533.344 589.4240000000001 L 569.291 589.4240000000001 C 569.955 589.4240000000001 570.618 589.359 571.2700000000001 589.2300000000001 C 573.3640000000001 588.9100000000001 575.2950000000001 587.9120000000001 576.7680000000001 586.3900000000001 C 578.2410000000001 584.8670000000001 579.1750000000002 582.9040000000001 579.4270000000001 580.801 L 586.4340000000001 521.375 L 586.7520000000001 519.009 L 589.528 495.473 z M 574.342 550.053 L 566.06 550.053 L 566.891 525.027 L 576.48 525.027 z M 577.288 525.027 L 585.251 525.027 L 582.305 550.053 L 575.149 550.053 z M 553.65 577.798 L 553.149 556.059 L 565.071 556.059 L 564.3430000000001 577.798 z M 540.761 556.059 L 552.341 556.059 L 552.842 577.798 L 542.456 577.798 z M 541.66 577.798 L 531.9449999999999 577.798 C 531.0229999999999 571.928 529.818 564.295 528.5319999999999 556.059 L 539.9649999999999 556.059 z M 540.3399999999999 550.053 L 538.3829999999999 525.027 L 551.67 525.027 L 552.25 550.053 z M 553.0579999999999 550.053 L 552.4779999999998 525.027 L 566.1279999999998 525.027 L 565.2979999999998 550.053 z M 552.3409999999999 519.02 L 551.7159999999999 495.837 L 567.0729999999999 495.837 L 566.2989999999999 519.02 z M 551.5449999999998 519.02 L 537.8939999999999 519.02 L 536.0859999999999 495.837 L 550.9759999999999 495.837 z M 537.1209999999999 519.02 L 522.6509999999998 519.02 L 521.2179999999998 510.068 C 519.7159999999999 500.69399999999996 519.1469999999998 497.168 518.8399999999998 495.84799999999996 L 535.2549999999998 495.84799999999996 z M 537.5869999999999 525.0269999999999 L 539.5439999999999 550.0529999999999 L 527.5649999999998 550.0529999999999 L 526.3479999999998 542.3739999999999 C 525.4149999999998 536.4699999999999 524.4829999999998 530.555 523.5949999999998 525.0269999999999 z M 526.8139999999999 550.0529999999999 L 519.0339999999999 550.0529999999999 L 514.8129999999999 525.0269999999999 L 522.8559999999999 525.0269999999999 C 524.0269999999999 532.762 525.3929999999999 541.362 526.7579999999999 550.0529999999999 z M 527.7589999999999 556.0589999999999 C 528.8959999999998 563.5779999999999 530.1129999999999 571.0069999999998 531.1709999999999 577.7979999999999 L 523.698 577.7979999999999 L 520.035 556.0589999999999 z M 565.1839999999999 577.7979999999999 L 565.9119999999998 556.0589999999999 L 573.8749999999998 556.0589999999999 L 572.0099999999998 577.7979999999999 z M 567.1409999999998 519.0199999999999 L 567.9139999999999 495.8369999999999 L 579.0169999999998 495.8369999999999 L 577.0259999999998 519.0199999999999 z M 518.0779999999999 495.8369999999999 C 518.3969999999998 497.5089999999999 519.8749999999999 506.6319999999999 521.8429999999998 519.0199999999999 L 513.7439999999998 519.0199999999999 L 509.8419999999998 495.8369999999999 z M 578.9939999999999 577.7409999999999 L 572.7599999999999 577.7409999999999 L 574.6259999999999 556.0019999999998 L 581.5539999999999 556.0019999999998 z M 585.9219999999999 518.9629999999999 L 577.8 518.9629999999999 L 579.7909999999999 495.77999999999986 L 588.6519999999999 495.77999999999986 z" stroke-linecap="round"/>
  </g>
  <g transform="matrix(0.88, 0, 0, 0.88, 680.98999, 752.719971)">
    <path style="stroke: none; stroke-width: 1; stroke-dasharray: none; stroke-linecap: butt; stroke-dashoffset: 0; stroke-linejoin: miter; stroke-miterlimit: 4; fill: rgb(123,63,129); fill-rule: nonzero; opacity: 1;" vector-effect="non-scaling-stroke" transform=" translate(-431.95, -426.92)" d="M 735.909 265.982 C 735.909 261.78400000000005 730.688 258.36 724.249 258.36 L 139.65800000000002 258.36 C 133.22000000000003 258.36 127.99800000000002 261.773 127.99800000000002 265.982 L 127.99800000000002 279.872 L 170.97500000000002 279.872 L 170.97500000000002 595.066 L 185.30800000000002 595.066 L 185.30800000000002 279.86 L 675.596 279.86 L 675.596 595.4870000000001 L 689.929 595.4870000000001 L 689.929 279.86000000000007 L 735.886 279.86000000000007 z" stroke-linecap="round"/>
  </g>
  <g transform="matrix(0.88, 0, 0, 0.88, 663.070007, 531.52002)">
    <path style="stroke: none; stroke-width: 1; stroke-dasharray: none; stroke-linecap: butt; stroke-dashoffset: 0; stroke-linejoin: miter; stroke-miterlimit: 4; fill: rgb(84,104,255); fill-rule: nonzero; opacity: 1;" vector-effect="non-scaling-stroke" transform=" translate(-431.8, -176.94)" d="M 400.932 258.61 L 462.66700000000003 258.61 L 462.66700000000003 95.26840000000001 L 400.932 95.26840000000001 z" stroke-linecap="round"/>
  </g>
  <g transform="matrix(0.88, 0, 0, 0.88, 663.070007, 531.52002)">
    <path style="stroke: none; stroke-width: 1; stroke-dasharray: none; stroke-linecap: butt; stroke-dashoffset: 0; stroke-linejoin: miter; stroke-miterlimit: 4; fill: rgb(60,62,86); fill-rule: nonzero; opacity: 1;" vector-effect="non-scaling-stroke" transform=" translate(-431.8, -176.94)" d="M 400.932 258.61 L 462.66700000000003 258.61 L 462.66700000000003 95.26840000000001 L 400.932 95.26840000000001 z" stroke-linecap="round"/>
  </g>
  <g transform="matrix(0.88, 0, 0, 0.88, 658.919983, 479.179993)">
    <path style="stroke: none; stroke-width: 1; stroke-dasharray: none; stroke-linecap: butt; stroke-dashoffset: 0; stroke-linejoin: miter; stroke-miterlimit: 4; fill: rgb(84,104,255); fill-rule: nonzero; opacity: 1;" vector-effect="non-scaling-stroke" transform=" translate(-427.1, -117.69)" d="M 548.872 44.0326 L 548.872 201.28900000000002 L 489.15 200.33300000000003 L 426.58399999999995 199.33200000000002 L 406.82499999999993 199.014 L 343.5419999999999 198.001 L 305.33199999999994 197.341 L 305.33199999999994 44.0326 C 305.3349999999999 41.3947 306.38499999999993 38.8659 308.2509999999999 37.0017 C 310.11799999999994 35.1375 312.6479999999999 34.0904 315.28599999999994 34.0904 L 538.895 34.0904 C 540.203 34.0874 541.499 34.342200000000005 542.709 34.8404 C 543.9179999999999 35.3386 545.0179999999999 36.0703 545.944 36.9936 C 546.871 37.917 547.606 39.014 548.1089999999999 40.2218 C 548.6109999999999 41.4296 548.8699999999999 42.7245 548.872 44.0326 z" stroke-linecap="round"/>
  </g>
  <g transform="matrix(0.88, 0, 0, 0.88, 658.919983, 479.179993)">
    <path style="stroke: none; stroke-width: 1; stroke-dasharray: none; stroke-linecap: butt; stroke-dashoffset: 0; stroke-linejoin: miter; stroke-miterlimit: 4; fill: rgb(60,62,86); fill-rule: nonzero; opacity: 1;" vector-effect="non-scaling-stroke" transform=" translate(-427.1, -117.69)" d="M 548.872 44.0326 L 548.872 201.28900000000002 L 489.15 200.33300000000003 L 426.58399999999995 199.33200000000002 L 406.82499999999993 199.014 L 343.5419999999999 198.001 L 305.33199999999994 197.341 L 305.33199999999994 44.0326 C 305.3349999999999 41.3947 306.38499999999993 38.8659 308.2509999999999 37.0017 C 310.11799999999994 35.1375 312.6479999999999 34.0904 315.28599999999994 34.0904 L 538.895 34.0904 C 540.203 34.0874 541.499 34.342200000000005 542.709 34.8404 C 543.9179999999999 35.3386 545.0179999999999 36.0703 545.944 36.9936 C 546.871 37.917 547.606 39.014 548.1089999999999 40.2218 C 548.6109999999999 41.4296 548.8699999999999 42.7245 548.872 44.0326 z" stroke-linecap="round"/>
  </g>
  <g transform="matrix(0.88, 0, 0, 0.88, 658.919983, 479.329987)">
    <path style="stroke: none; stroke-width: 1; stroke-dasharray: none; stroke-linecap: butt; stroke-dashoffset: 0; stroke-linejoin: miter; stroke-miterlimit: 4; fill: rgb(255,255,255); fill-rule: nonzero; opacity: 1;" vector-effect="non-scaling-stroke" transform=" translate(-427.1, -117.85)" d="M 538.85 47.5708 L 315.35400000000004 47.5708 C 314.845 47.5708 314.432 47.9833 314.432 48.4922 L 314.432 187.21699999999998 C 314.432 187.72599999999997 314.845 188.13899999999998 315.35400000000004 188.13899999999998 L 538.85 188.13899999999998 C 539.3580000000001 188.13899999999998 539.7710000000001 187.72599999999997 539.7710000000001 187.21699999999998 L 539.7710000000001 48.4922 C 539.7710000000001 47.9833 539.3580000000001 47.5708 538.85 47.5708 z" stroke-linecap="round"/>
  </g>
  <g transform="matrix(0.88, 0, 0, 0.88, 658.950012, 561.77002)">
    <path style="stroke: none; stroke-width: 1; stroke-dasharray: none; stroke-linecap: butt; stroke-dashoffset: 0; stroke-linejoin: miter; stroke-miterlimit: 4; fill: rgb(60,62,86); fill-rule: nonzero; opacity: 1;" vector-effect="non-scaling-stroke" transform=" translate(-427.14, -211.17)" d="M 305.412 196.625 L 305.412 208.365 C 305.412 212.966 307.239 217.37800000000001 310.493 220.631 C 313.746 223.885 318.158 225.712 322.759 225.712 L 531.524 225.712 C 536.125 225.712 540.537 223.885 543.791 220.631 C 547.0440000000001 217.378 548.8720000000001 212.966 548.8720000000001 208.365 L 548.8720000000001 196.625 z" stroke-linecap="round"/>
  </g>
  <g transform="matrix(0.88, 0, 0, 0.88, 659.859985, 599.219971)">
    <path style="stroke: rgb(60,62,86); stroke-width: 1; stroke-dasharray: none; stroke-linecap: butt; stroke-dashoffset: 0; stroke-linejoin: miter; stroke-miterlimit: 4; fill: rgb(60,62,86); fill-rule: nonzero; opacity: 1;" vector-effect="non-scaling-stroke" transform=" translate(-428.18, -253.55)" d="M 377.282 259.236 L 479.07099999999997 259.236 C 480.57899999999995 259.236 482.02599999999995 258.637 483.09299999999996 257.57 C 484.15999999999997 256.504 484.75899999999996 255.057 484.75899999999996 253.549 C 484.75899999999996 252.04000000000002 484.15999999999997 250.59300000000002 483.09299999999996 249.52700000000002 C 482.02599999999995 248.46 480.57899999999995 247.86100000000002 479.07099999999997 247.86100000000002 L 377.282 247.86100000000002 C 375.774 247.86100000000002 374.327 248.46 373.26 249.52700000000002 C 372.194 250.59300000000002 371.594 252.04000000000002 371.594 253.549 C 371.594 255.05700000000002 372.194 256.504 373.26 257.57 C 374.327 258.637 375.774 259.236 377.282 259.236 z" stroke-linecap="round"/>
  </g>
  <g transform="matrix(0.88, 0, 0, 1.07, 638.549988, 892.27002)">
    <path style="stroke: none; stroke-width: 1; stroke-dasharray: none; stroke-linecap: butt; stroke-dashoffset: 0; stroke-linejoin: miter; stroke-miterlimit: 4; fill-rule: nonzero; opacity: 1; fill: rgb(60, 62, 86);" vector-effect="non-scaling-stroke" transform=" translate(-330.1, -564.71)" d="M 321.724 555.388 C 321.724 555.388 347.706 556.23 354.918 559.3580000000001 C 359.15000000000003 561.19 361.436 566.9340000000001 362.619 571.3820000000001 C 361.90400000000005 571.9250000000001 361.055 572.263 360.16200000000003 572.3610000000001 C 350.05800000000005 573.4300000000001 339.90500000000003 573.988 329.744 574.0330000000001 C 314.728 574.0330000000001 302.09000000000003 573.4870000000001 297.58500000000004 573.2710000000002 C 297.79 569.0050000000002 298.22200000000004 562.7480000000002 299.098 557.1170000000002 C 306.684 557.6530000000001 314.308 557.0700000000002 321.724 555.3880000000001 z" stroke-linecap="round"/>
  </g>
  <g transform="matrix(0.88, 0, 0, 1.02, 575.22998, 891.909973)">
    <path style="stroke: none; stroke-width: 1; stroke-dasharray: none; stroke-linecap: butt; stroke-dashoffset: 0; stroke-linejoin: miter; stroke-miterlimit: 4; fill-rule: nonzero; opacity: 1; fill: rgb(60, 62, 86);" vector-effect="non-scaling-stroke" transform=" translate(-392.01, -564.71)" d="M 383.141 555.388 C 383.141 555.388 410.351 556.23 417.90500000000003 559.3580000000001 C 422.59200000000004 561.292 424.992 567.5830000000001 426.16400000000004 572.099 C 425.992 572.148 425.81700000000006 572.186 425.64000000000004 572.2130000000001 C 419.19000000000005 572.8720000000001 405.90400000000005 574.0330000000001 391.51400000000007 574.0330000000001 C 376.24700000000007 574.0330000000001 363.27900000000005 573.5440000000001 357.85300000000007 573.3050000000002 C 358.10800000000006 567.8810000000002 358.6480000000001 562.4740000000002 359.4680000000001 557.1060000000002 C 367.40100000000007 557.6430000000003 375.3690000000001 557.0650000000002 383.1410000000001 555.3880000000003 z" stroke-linecap="round"/>
  </g>
  <g transform="matrix(0.88, 0, 0, 0.95, 509.950012, 771.590027)">
    <path style="stroke: none; stroke-width: 1; stroke-dasharray: none; stroke-linecap: butt; stroke-dashoffset: 0; stroke-linejoin: miter; stroke-miterlimit: 4; fill-rule: nonzero; opacity: 1; paint-order: fill;" vector-effect="non-scaling-stroke" transform=" translate(-258.49, -439.05)" d="M 241.162 324.919 C 300.486 323.155 334.442 336.99899999999997 337.206 355.405 C 339.971 373.811 326.61600000000004 555.615 326.61600000000004 555.615 C 326.61600000000004 555.615 316.29800000000006 561.303 299.04100000000005 557.89 C 299.04100000000005 557.89 287.88200000000006 497.395 284.3550000000001 468.615 C 280.82900000000006 439.83500000000004 284.06000000000006 400.748 284.06000000000006 400.748 C 284.06000000000006 400.748 228.55800000000005 420.166 195.08000000000004 399.019 C 161.60200000000003 377.872 192.14500000000004 319.128 192.14500000000004 319.128 z" stroke-linecap="round"/>
  </g>
  <g transform="matrix(0.88, 0, 0, 0.95, 576.809998, 770.950012)">
    <path style="stroke: none; stroke-width: 1; stroke-dasharray: none; stroke-linecap: butt; stroke-dashoffset: 0; stroke-linejoin: miter; stroke-miterlimit: 4; fill-rule: nonzero; opacity: 1; paint-order: fill;" vector-effect="non-scaling-stroke" d="M -18.302 -114.341 C 41.022 -116.105 74.978 -102.261 77.742 -83.855 C 80.506 -65.449 66.366 116.242 66.366 116.242 C 66.366 116.242 57.801 121.577 39.588 119.222 C 39.588 119.222 28.429 58.181 24.902 29.355 C 21.376 0.529 24.607 -38.512 24.607 -38.512 C 24.607 -38.512 -30.895 -19.094 -64.373 -40.241 C -97.852 -61.388 -67.308 -120.132 -67.308 -120.132 L -18.302 -114.341 Z" stroke-linecap="round"/>
  </g>
  <g transform="matrix(0.88, 0, 0, 0.88, 505.070007, 444.25)">
    <path style="stroke: none; stroke-width: 1; stroke-dasharray: none; stroke-linecap: butt; stroke-dashoffset: 0; stroke-linejoin: miter; stroke-miterlimit: 4; fill: rgb(245,181,143); fill-rule: nonzero; opacity: 1;" vector-effect="non-scaling-stroke" transform=" translate(-252.98, -78.15)" d="M 277.086 26.5488 C 280.994 35.9539 283.567 45.8594 284.731 55.9775 C 284.731 55.9775 290.077 65.3851 290.191 68.79769999999999 C 290.30499999999995 72.21039999999999 285.197 73.5868 285.197 73.5868 C 285.197 73.5868 285.197 92.1859 280.545 98.0671 C 275.892 103.948 259.363 104.062 259.363 104.062 C 259.363 104.062 257.327 109.295 262.184 129.748 L 215.76100000000002 129.748 C 215.76100000000002 129.748 221.24400000000003 114.96 222.24500000000003 91.56029999999998 C 223.24600000000004 68.16069999999999 212.26800000000003 26.548799999999986 277.086 26.548799999999986 z" stroke-linecap="round"/>
  </g>
  <g transform="matrix(0.88, 0, 0, 0.88, 499.600006, 417.540009)">
    <path style="stroke: none; stroke-width: 1; stroke-dasharray: none; stroke-linecap: butt; stroke-dashoffset: 0; stroke-linejoin: miter; stroke-miterlimit: 4; fill: rgb(60,62,86); fill-rule: nonzero; opacity: 1;" vector-effect="non-scaling-stroke" transform=" translate(-246.78, -47.93)" d="M 211.051 20.531 C 211.994 19.4941 213.051 18.5669 214.202 17.7667 C 218.767 14.5211 223.971 12.2872 229.468 11.214400000000001 C 236.658 9.610460000000002 244.075 9.223690000000001 251.321 7.858620000000001 C 259.739 6.2774100000000015 267.849 3.376640000000001 275.949 0.5782440000000006 C 276.422 0.3405750000000006 276.938 0.20277400000000062 277.467 0.17341800000000063 C 277.995 0.14406200000000063 278.524 0.22378300000000062 279.02 0.4076130000000006 C 279.423 0.7042390000000006 279.75899999999996 1.0805300000000007 280.01 1.5130600000000007 C 280.26099999999997 1.9455800000000008 280.419 2.4250600000000007 280.476 2.9216200000000008 C 281.399 6.812220000000001 281.569 10.843300000000001 280.977 14.7977 L 284.06 11.976600000000001 C 285.095 15.537100000000002 284.401 19.3821 283.172 22.885800000000003 C 281.944 26.389400000000002 280.20300000000003 29.711100000000002 279.05400000000003 33.214800000000004 C 276.77900000000005 40.3359 276.973 48.003 277.985 55.4654 C 278.411 57.464600000000004 278.446 59.5275 278.088 61.540000000000006 C 277.576 63.51930000000001 275.97200000000004 65.3735 273.935 65.45320000000001 C 273.832 63.11540000000001 273.219 60.82850000000001 272.138 58.75300000000001 C 270.90999999999997 56.77360000000001 268.47499999999997 55.340300000000006 266.246 56.022800000000004 C 264.01599999999996 56.705400000000004 262.83299999999997 59.0942 262.503 61.358000000000004 C 261.995 64.59100000000001 262.64799999999997 67.8995 264.346 70.6973 C 265.153 72.01689999999999 266.223 73.3933 265.961 74.9063 C 265.752 75.6904 265.362 76.4149 264.824 77.0221 L 259.693 83.93849999999999 C 257.418 86.93029999999999 255.14299999999997 89.99029999999999 252.07199999999997 92.04929999999999 C 248.45799999999997 94.20379999999999 244.35499999999996 95.40189999999998 240.14999999999998 95.5302 C 236.09799999999998 95.91959999999999 232.009 95.5727 228.07999999999998 94.5064 C 226.44899999999998 94.12 224.93699999999998 93.3387 223.678 92.2313 C 222.658 91.0969 221.852 89.78630000000001 221.301 88.3636 C 218.50799999999998 82.3463 216.09099999999998 76.16120000000001 214.06599999999997 69.8441 C 210.32899999999998 57.799899999999994 208.634 45.2155 209.04899999999998 32.6119 C 208.97599999999997 29.3879 209.21999999999997 26.1644 209.777 22.9881 C 210.004 22.0808 210.44 21.2392 211.051 20.531 z" stroke-linecap="round"/>
  </g>
  <g transform="matrix(0.88, 0, 0, 0.88, 446.579987, 562.559998)">
    <path style="stroke: none; stroke-width: 1; stroke-dasharray: none; stroke-linecap: butt; stroke-dashoffset: 0; stroke-linejoin: miter; stroke-miterlimit: 4; fill: rgb(0,0,0); fill-rule: nonzero; opacity: 1;" vector-effect="non-scaling-stroke" transform=" translate(-186.77, -212.07)" d="M 207.479 301.678 C 202.394 297.913 196.84300000000002 293.715 191.55300000000003 289.302 C 179.54100000000003 279.21200000000005 168.80200000000002 268.257 167.48300000000003 260.271 C 164.54800000000003 242.389 166.84600000000003 189.24200000000002 168.26800000000003 164.14800000000002 C 168.26800000000003 162.63500000000002 168.40400000000002 161.21300000000002 168.49500000000003 159.88200000000003 C 169.91700000000003 136.17500000000004 184.69400000000005 126.30100000000003 191.06400000000002 122.45600000000003 C 194.318 153.27300000000002 199.63000000000002 222.20900000000003 200.222 225.78000000000003 C 201.018 230.33100000000002 207.479 301.678 207.479 301.678 z" stroke-linecap="round"/>
  </g>
  <g transform="matrix(0.88, 0, 0, 0.88, 495.029999, 476.480011)">
    <path style="stroke: none; stroke-width: 1; stroke-dasharray: none; stroke-linecap: butt; stroke-dashoffset: 0; stroke-linejoin: miter; stroke-miterlimit: 4; fill: rgb(0,0,0); fill-rule: nonzero; opacity: 1;" vector-effect="non-scaling-stroke" transform=" translate(-241.61, -114.63)" d="M 207.934 123.4 C 207.934 123.4 210.755 111.581 213.895 108.61200000000001 C 217.03500000000003 105.64300000000001 236.73700000000002 105.48400000000001 243.03900000000002 106.269 C 249.341 107.054 268.14500000000004 111.82000000000001 270.19300000000004 113.35600000000001 C 272.24000000000007 114.891 275.28900000000004 123.4 275.28900000000004 123.4 z" stroke-linecap="round"/>
  </g>
  <g transform="matrix(0.88, 0, 0, 0.88, 492.269989, 571.919983)">
    <path style="stroke: none; stroke-width: 1; stroke-dasharray: none; stroke-linecap: butt; stroke-dashoffset: 0; stroke-linejoin: miter; stroke-miterlimit: 4; fill: rgb(0,0,0); fill-rule: nonzero; opacity: 1;" vector-effect="non-scaling-stroke" transform=" translate(-238.49, -222.65)" d="M 173.284 154.239 C 170.713 112.15 215.749 116.177 215.749 116.177 C 273.071 112.605 299.997 129.11100000000002 303.114 153.716 C 303.34099999999995 155.45700000000002 303.47799999999995 157.334 303.614 159.31300000000002 C 305.082 184.71500000000003 297.335 225.71200000000002 293.65999999999997 256.34700000000004 C 293.592 256.915 293.54699999999997 257.48400000000004 293.48999999999995 258.064 C 292.352 275.12800000000004 301.36199999999997 324.896 301.36199999999997 324.896 C 301.36199999999997 324.896 278.03 329.605 241.29899999999998 329.605 C 204.56699999999998 329.605 189.50599999999997 326.19300000000004 189.50599999999997 326.19300000000004 C 189.50599999999997 326.19300000000004 195.75099999999998 279.37100000000004 189.50599999999997 246.56400000000002 C 183.78399999999996 217.71500000000003 174.75199999999998 178.64000000000001 173.28399999999996 154.23900000000003 z" stroke-linecap="round"/>
  </g>
  <g transform="matrix(0.88, 0, 0, 0.88, 541.119995, 515.419983)">
    <path style="stroke: none; stroke-width: 1; stroke-dasharray: none; stroke-linecap: butt; stroke-dashoffset: 0; stroke-linejoin: miter; stroke-miterlimit: 4; fill: rgb(0,0,0); fill-rule: nonzero; opacity: 1;" vector-effect="non-scaling-stroke" transform=" translate(-293.77, -158.71)" d="M 271.717 179.391 L 265.15299999999996 121.81899999999999 C 265.15299999999996 121.81899999999999 291.431 119.72599999999998 302.989 129.429 C 307.323 133.069 317.02599999999995 156.651 322.395 180.619 C 317.197 184.601 302.659 191.381 283.42199999999997 195.783 C 278.48499999999996 186.137 274.02599999999995 179.04999999999998 271.717 179.391 z" stroke-linecap="round"/>
  </g>
  <g transform="matrix(0.88, 0, 0, 0.88, 594.929993, 569.919983)">
    <path style="stroke: none; stroke-width: 1; stroke-dasharray: none; stroke-linecap: butt; stroke-dashoffset: 0; stroke-linejoin: miter; stroke-miterlimit: 4; fill: rgb(245,181,143); fill-rule: nonzero; opacity: 1;" vector-effect="non-scaling-stroke" transform=" translate(-354.69, -220.38)" d="M 424.309 258.895 C 423.30300000000005 255.43999999999997 421.71000000000004 252.18499999999997 419.6 249.271 C 416.187 244.56099999999998 405.63100000000003 243.93599999999998 389.17 245.85799999999998 C 388.033 245.43699999999998 346.87600000000003 230.069 328.69800000000004 228.17999999999998 C 326.83200000000005 218.295 323.146 199.29799999999997 318.937 180.53999999999996 C 313.73900000000003 184.52099999999996 304.297 184.20299999999997 285.06100000000004 188.60499999999996 C 294.389 210.85499999999996 305.446 245.27799999999996 305.446 245.27799999999996 C 318.19800000000004 263.81999999999994 365.52000000000004 260.62399999999997 382.72 258.792 z" stroke-linecap="round"/>
  </g>
  <g transform="matrix(0.88, 0, 0, 0.88, 423.029999, 812.580017)">
    <path style="stroke: none; stroke-width: 1; stroke-dasharray: none; stroke-linecap: butt; stroke-dashoffset: 0; stroke-linejoin: miter; stroke-miterlimit: 4; fill: rgb(60,62,86); fill-rule: nonzero; opacity: 1;" vector-effect="non-scaling-stroke" transform=" translate(-157.43, -495.99)" d="M 129.238 596.829 C 129.821 596.9799999999999 130.429 597.011 131.025 596.919 C 131.62 596.828 132.191 596.616 132.702 596.297 C 133.213 595.977 133.653 595.557 133.996 595.062 C 134.34 594.567 134.579 594.0070000000001 134.698 593.417 L 188.96 399.827 L 172.966 395.015 L 126.06400000000001 590.823 C 125.75200000000001 592.04 125.90400000000001 593.329 126.49100000000001 594.439 C 127.07700000000001 595.55 128.05700000000002 596.4019999999999 129.238 596.829 z" stroke-linecap="round"/>
  </g>
  <g transform="matrix(0.88, 0, 0, 0.88, 566.349976, 811.179993)">
    <path style="stroke: none; stroke-width: 1; stroke-dasharray: none; stroke-linecap: butt; stroke-dashoffset: 0; stroke-linejoin: miter; stroke-miterlimit: 4; fill: rgb(60,62,86); fill-rule: nonzero; opacity: 1;" vector-effect="non-scaling-stroke" transform=" translate(-328.67, -495.99)" d="M 356.875 596.829 C 356.291 596.9799999999999 355.683 597.011 355.088 596.919 C 354.492 596.828 353.922 596.616 353.411 596.297 C 352.9 595.977 352.46 595.557 352.116 595.062 C 351.77299999999997 594.567 351.534 594.0070000000001 351.414 593.417 L 297.14099999999996 399.827 L 313.13599999999997 395.015 L 360.037 590.789 C 360.35999999999996 592.009 360.214 593.305 359.62899999999996 594.423 C 359.0439999999999 595.541 358.061 596.399 356.87499999999994 596.829 z" stroke-linecap="round"/>
  </g>
  <g transform="matrix(0.88, 0, 0, 0.88, 504.910004, 810.789978)">
    <path style="stroke: none; stroke-width: 1; stroke-dasharray: none; stroke-linecap: butt; stroke-dashoffset: 0; stroke-linejoin: miter; stroke-miterlimit: 4; fill: rgb(60,62,86); fill-rule: nonzero; opacity: 1;" vector-effect="non-scaling-stroke" transform=" translate(-273.75, -493.96)" d="M 290.43 596.943 C 289.827 597.016 289.21500000000003 596.967 288.63100000000003 596.799 C 288.047 596.631 287.502 596.348 287.02900000000005 595.966 C 286.5560000000001 595.5840000000001 286.1650000000001 595.112 285.87700000000007 594.576 C 285.5900000000001 594.041 285.41300000000007 593.453 285.3570000000001 592.8480000000001 L 253.23200000000008 393.6500000000001 L 269.6010000000001 390.95400000000006 L 294.2070000000001 591.392 C 294.3990000000001 592.624 294.1150000000001 593.8820000000001 293.4140000000001 594.913 C 292.7130000000001 595.944 291.64600000000013 596.669 290.4300000000001 596.943 z" stroke-linecap="round"/>
  </g>
  <g transform="matrix(0.88, 0, 0, 0.88, 455.690002, 809.940002)">
    <path style="stroke: none; stroke-width: 1; stroke-dasharray: none; stroke-linecap: butt; stroke-dashoffset: 0; stroke-linejoin: miter; stroke-miterlimit: 4; fill: rgb(60,62,86); fill-rule: nonzero; opacity: 1;" vector-effect="non-scaling-stroke" transform=" translate(-209.46, -493.96)" d="M 192.782 596.943 C 193.38500000000002 597.015 193.997 596.966 194.58100000000002 596.798 C 195.16500000000002 596.631 195.71 596.347 196.18300000000002 595.966 C 196.65600000000003 595.5840000000001 197.04700000000003 595.111 197.335 594.576 C 197.622 594.0400000000001 197.799 593.453 197.856 592.8480000000001 L 229.98 393.63800000000003 L 213.588 390.942 L 189.005 591.3910000000001 C 188.813 592.623 189.097 593.8820000000001 189.798 594.9130000000001 C 190.499 595.9430000000001 191.566 596.6690000000001 192.782 596.9430000000001 z" stroke-linecap="round"/>
  </g>
  <g transform="matrix(0.88, 0, 0, 0.88, 499.959991, 640.01001)">
    <path style="stroke: none; stroke-width: 1; stroke-dasharray: none; stroke-linecap: butt; stroke-dashoffset: 0; stroke-linejoin: miter; stroke-miterlimit: 4; fill: rgb(123,63,129); fill-rule: nonzero; opacity: 1;" vector-effect="non-scaling-stroke" transform=" translate(-247.19, -299.73)" d="M 113.358 199.617 L 113.358 199.867 C 113.483 200.68599999999998 113.64200000000001 201.619 113.87 202.665 C 114.22200000000001 204.13299999999998 114.655 205.65699999999998 115.16600000000001 207.295 C 117.90800000000002 216.339 122.45800000000001 228.807 123.459 252.52499999999998 C 124.278 272.284 120.922 299.164 122.413 323.53099999999995 C 123.90299999999999 347.89699999999993 128.1 382.0919999999999 153.684 400.38399999999996 C 158.63 403.989 164.091 406.82599999999996 169.883 408.80199999999996 C 174.985 410.59499999999997 180.21800000000002 411.98999999999995 185.536 412.977 C 193.852 414.52099999999996 202.262 415.50899999999996 210.71 415.935 C 216.011 416.231 221.323 416.367 226.556 416.424 C 237.226 416.515 247.544 416.19599999999997 256.622 415.935 L 263.29900000000004 415.764 C 266.02900000000005 415.696 269.08900000000006 415.53700000000003 272.40000000000003 415.27500000000003 C 280.46500000000003 414.66100000000006 290.12300000000005 413.523 300.293 411.999 C 305.53700000000003 411.214 310.92900000000003 410.315 316.309 409.36 C 346.216 403.968 375.781 396.062 379.535 389.123 C 380.785 387.11 381.29200000000003 384.724 380.968 382.377 C 380.925 382.022 380.849 381.671 380.74100000000004 381.33 C 380.50300000000004 380.61199999999997 380.16600000000005 379.93 379.74000000000007 379.305 C 379.4150000000001 378.78000000000003 379.0330000000001 378.29200000000003 378.6020000000001 377.849 C 377.0850000000001 376.409 375.2220000000001 375.38599999999997 373.19200000000006 374.88 C 371.16300000000007 374.373 369.0370000000001 374.401 367.02200000000005 374.96 C 354.27000000000004 378.21299999999997 316.24100000000004 385.46 299.17800000000005 363.789 C 278.48600000000005 337.534 287.49500000000006 339.753 278.5880000000001 275.81 C 270.21600000000007 215.326 253.27700000000007 203.12 222.06300000000007 191.02800000000002 C 195.26200000000009 180.722 155.52700000000007 182.21200000000002 133.89100000000008 185.34000000000003 C 129.74000000000007 185.85600000000002 125.63100000000007 186.66200000000003 121.59400000000008 187.75200000000004 C 119.49500000000008 188.36900000000003 117.61500000000008 189.56900000000005 116.17100000000008 191.21200000000005 C 114.72700000000007 192.85500000000005 113.77900000000008 194.87400000000005 113.43700000000008 197.03500000000005 C 113.29900000000008 197.88800000000006 113.27200000000008 198.75600000000006 113.35800000000009 199.61700000000005 z" stroke-linecap="round"/>
  </g>
  <g transform="matrix(0.88, 0, 0, 0.88, 499.880005, 645.630005)">
    <path style="stroke: none; stroke-width: 1; stroke-dasharray: none; stroke-linecap: butt; stroke-dashoffset: 0; stroke-linejoin: miter; stroke-miterlimit: 4; fill: rgb(60,62,86); fill-rule: nonzero; opacity: 1;" vector-effect="non-scaling-stroke" transform=" translate(-247.17, -303.85)" d="M 113.358 199.617 L 113.358 199.867 C 113.483 200.68599999999998 113.64200000000001 201.619 113.87 202.665 C 114.22200000000001 204.13299999999998 114.65400000000001 205.65699999999998 115.16600000000001 207.295 C 117.90800000000002 216.339 122.45800000000001 228.80599999999998 123.459 252.52499999999998 C 124.278 272.284 120.922 299.164 122.413 323.53099999999995 C 123.90299999999999 347.89699999999993 128.1 382.0919999999999 153.684 400.38399999999996 C 158.63 403.98799999999994 164.091 406.82599999999996 169.883 408.80199999999996 C 174.985 410.59499999999997 180.21800000000002 411.98999999999995 185.536 412.977 C 193.852 414.52099999999996 202.262 415.50899999999996 210.71 415.935 C 216.011 416.23 221.323 416.367 226.556 416.424 C 237.226 416.515 247.544 416.19599999999997 256.622 415.935 L 263.29900000000004 415.764 C 266.02900000000005 415.696 269.08900000000006 415.53700000000003 272.40000000000003 415.27500000000003 C 280.46500000000003 414.66100000000006 290.12300000000005 413.523 300.293 411.999 C 305.53700000000003 411.214 310.92900000000003 410.315 316.309 409.36 C 346.216 403.968 375.781 396.062 379.535 389.122 C 380.785 387.11 381.29200000000003 384.724 380.968 382.377 C 380.925 382.022 380.849 381.671 380.74100000000004 381.33 C 380.50300000000004 380.61199999999997 380.16600000000005 379.93 379.74000000000007 379.305 C 379.1140000000001 378.384 365.00800000000004 384.345 363.6430000000001 384.868 C 329.4140000000001 397.973 282.36500000000007 388.94 276.6090000000001 346.896 C 271.72800000000007 311.07500000000005 273.1960000000001 276.52700000000004 260.2500000000001 241.95700000000002 C 234.7010000000001 173.86200000000002 133.5830000000001 192.507 113.36900000000011 197.00000000000003 C 113.25000000000011 197.86800000000002 113.24600000000011 198.74800000000002 113.35800000000012 199.61700000000002 z" stroke-linecap="round"/>
  </g>
  <g transform="matrix(0.88, 0, 0, 0.88, 574.929993, 479.660004)">
    <path style="stroke: none; stroke-width: 1; stroke-dasharray: none; stroke-linecap: butt; stroke-dashoffset: 0; stroke-linejoin: miter; stroke-miterlimit: 4; fill: rgb(84,104,255); fill-rule: nonzero; opacity: 1;" vector-effect="non-scaling-stroke" transform=" translate(-332.05, -118.22)" d="M 326.274 174.17 C 325.945 174.17 328.265 149.064 331.462 118.16799999999998 C 334.658 87.27149999999997 337.502 62.245199999999976 337.82099999999997 62.27929999999998 C 338.13899999999995 62.313499999999976 335.83 87.38519999999997 332.633 118.28099999999998 C 329.43699999999995 149.17699999999996 326.59299999999996 174.20399999999998 326.274 174.17 z" stroke-linecap="round"/>
  </g>
  <g transform="matrix(0.88, 0, 0, 0.88, 597.090027, 435.149994)">
    <path style="stroke: none; stroke-width: 1; stroke-dasharray: none; stroke-linecap: butt; stroke-dashoffset: 0; stroke-linejoin: miter; stroke-miterlimit: 4; fill: rgb(84,104,255); fill-rule: nonzero; opacity: 1;" vector-effect="non-scaling-stroke" transform=" translate(-357.13, -67.85)" d="M 357.125 68.4448 C 363.615 68.4448 368.876 68.1799 368.876 67.8532 C 368.876 67.5266 363.61499999999995 67.2617 357.125 67.2617 C 350.63500000000005 67.2617 345.374 67.5266 345.374 67.8532 C 345.374 68.1799 350.63500000000005 68.4448 357.125 68.4448 z" stroke-linecap="round"/>
  </g>
  <g transform="matrix(0.88, 0, 0, 0.88, 654.429993, 435.149994)">
    <path style="stroke: none; stroke-width: 1; stroke-dasharray: none; stroke-linecap: butt; stroke-dashoffset: 0; stroke-linejoin: miter; stroke-miterlimit: 4; fill: rgb(84,104,255); fill-rule: nonzero; opacity: 1;" vector-effect="non-scaling-stroke" transform=" translate(-422.02, -67.85)" d="M 468.81 67.8532 C 468.81 68.1831 447.868 68.4448 422.023 68.4448 C 396.177 68.4448 375.235 68.1831 375.235 67.8532 C 375.235 67.5234 396.177 67.2617 422.023 67.2617 C 447.86800000000005 67.2617 468.81 67.52340000000001 468.81 67.8532 z" stroke-linecap="round"/>
  </g>
  <g transform="matrix(0.88, 0, 0, 0.88, 594.650024, 487.480011)">
    <path style="stroke: none; stroke-width: 1; stroke-dasharray: none; stroke-linecap: butt; stroke-dashoffset: 0; stroke-linejoin: miter; stroke-miterlimit: 4; fill: rgb(84,104,255); fill-rule: nonzero; opacity: 1;" vector-effect="non-scaling-stroke" transform=" translate(-354.36, -127.09)" d="M 354.361 127.678 C 360.84999999999997 127.678 366.11199999999997 127.413 366.11199999999997 127.086 C 366.11199999999997 126.759 360.84999999999997 126.495 354.361 126.495 C 347.871 126.495 342.61 126.759 342.61 127.086 C 342.61 127.413 347.87100000000004 127.678 354.361 127.678 z" stroke-linecap="round"/>
  </g>
  <g transform="matrix(0.88, 0, 0, 0.88, 651.98999, 487.480011)">
    <path style="stroke: none; stroke-width: 1; stroke-dasharray: none; stroke-linecap: butt; stroke-dashoffset: 0; stroke-linejoin: miter; stroke-miterlimit: 4; fill: rgb(84,104,255); fill-rule: nonzero; opacity: 1;" vector-effect="non-scaling-stroke" transform=" translate(-419.26, -127.09)" d="M 419.258 127.678 C 445.09799999999996 127.678 466.046 127.413 466.046 127.086 C 466.046 126.759 445.098 126.495 419.258 126.495 C 393.41799999999995 126.495 372.46999999999997 126.759 372.46999999999997 127.086 C 372.46999999999997 127.413 393.41799999999995 127.678 419.258 127.678 z" stroke-linecap="round"/>
  </g>
  <g transform="matrix(0.88, 0, 0, 0.88, 623.830017, 511.600006)">
    <path style="stroke: none; stroke-width: 1; stroke-dasharray: none; stroke-linecap: butt; stroke-dashoffset: 0; stroke-linejoin: miter; stroke-miterlimit: 4; fill: rgb(84,104,255); fill-rule: nonzero; opacity: 1;" vector-effect="non-scaling-stroke" transform=" translate(-387.38, -154.39)" d="M 434.172 154.387 C 434.172 154.717 413.22900000000004 154.979 387.384 154.979 C 361.539 154.979 340.596 154.717 340.596 154.387 C 340.596 154.058 361.539 153.796 387.384 153.796 C 413.22900000000004 153.796 434.172 154.114 434.172 154.387 z" stroke-linecap="round"/>
  </g>
  <g transform="matrix(0.88, 0, 0, 0.88, 602.02002, 449.920013)">
    <path style="stroke: none; stroke-width: 1; stroke-dasharray: none; stroke-linecap: butt; stroke-dashoffset: 0; stroke-linejoin: miter; stroke-miterlimit: 4; fill: rgb(84,104,255); fill-rule: nonzero; opacity: 1;" vector-effect="non-scaling-stroke" transform=" translate(-362.7, -84.58)" d="M 362.699 85.1669 C 371.82800000000003 85.1669 379.228 84.9021 379.228 84.5754 C 379.228 84.2487 371.82800000000003 83.9839 362.699 83.9839 C 353.57 83.9839 346.17 84.2487 346.17 84.5754 C 346.17 84.9021 353.57 85.1669 362.699 85.1669 z" stroke-linecap="round"/>
  </g>
  <g transform="matrix(0.88, 0, 0, 0.88, 601.280029, 471.579987)">
    <path style="stroke: none; stroke-width: 1; stroke-dasharray: none; stroke-linecap: butt; stroke-dashoffset: 0; stroke-linejoin: miter; stroke-miterlimit: 4; fill: rgb(84,104,255); fill-rule: nonzero; opacity: 1;" vector-effect="non-scaling-stroke" transform=" translate(-361.87, -109.09)" d="M 361.869 109.681 C 370.997 109.681 378.39700000000005 109.416 378.39700000000005 109.09 C 378.39700000000005 108.763 370.99700000000007 108.498 361.869 108.498 C 352.74 108.498 345.34000000000003 108.763 345.34000000000003 109.09 C 345.34000000000003 109.416 352.74 109.681 361.869 109.681 z" stroke-linecap="round"/>
  </g>
  <g transform="matrix(0.88, 0, 0, 0.88, 625.969971, 502.549988)">
    <path style="stroke: none; stroke-width: 1; stroke-dasharray: none; stroke-linecap: butt; stroke-dashoffset: 0; stroke-linejoin: miter; stroke-miterlimit: 4; fill: rgb(84,104,255); fill-rule: nonzero; opacity: 1;" vector-effect="non-scaling-stroke" transform=" translate(-389.81, -144.14)" d="M 389.807 144.729 C 398.93600000000004 144.729 406.336 144.465 406.336 144.138 C 406.336 143.811 398.93600000000004 143.546 389.807 143.546 C 380.67900000000003 143.546 373.279 143.81099999999998 373.279 144.138 C 373.279 144.46500000000003 380.679 144.729 389.807 144.729 z" stroke-linecap="round"/>
  </g>
  <g transform="matrix(0.88, 0, 0, 0.88, 685.549988, 449.920013)">
    <path style="stroke: none; stroke-width: 1; stroke-dasharray: none; stroke-linecap: butt; stroke-dashoffset: 0; stroke-linejoin: miter; stroke-miterlimit: 4; fill: rgb(84,104,255); fill-rule: nonzero; opacity: 1;" vector-effect="non-scaling-stroke" transform=" translate(-457.24, -84.58)" d="M 457.242 85.1669 C 480.55600000000004 85.1669 499.456 84.9021 499.456 84.5754 C 499.456 84.2487 480.55600000000004 83.9839 457.242 83.9839 C 433.927 83.9839 415.02700000000004 84.2487 415.02700000000004 84.5754 C 415.02700000000004 84.9021 433.927 85.1669 457.2420000000001 85.1669 z" stroke-linecap="round"/>
  </g>
  <g transform="matrix(0.88, 0, 0, 0.88, 662.52002, 472.839996)">
    <path style="stroke: none; stroke-width: 1; stroke-dasharray: none; stroke-linecap: butt; stroke-dashoffset: 0; stroke-linejoin: miter; stroke-miterlimit: 4; fill: rgb(84,104,255); fill-rule: nonzero; opacity: 1;" vector-effect="non-scaling-stroke" transform=" translate(-431.18, -110.51)" d="M 431.18 111.103 C 454.494 111.103 473.395 110.839 473.395 110.512 C 473.395 110.185 454.49399999999997 109.92 431.17999999999995 109.92 C 407.86499999999995 109.92 388.9649999999999 110.185 388.9649999999999 110.512 C 388.9649999999999 110.839 407.8649999999999 111.103 431.17999999999995 111.103 z" stroke-linecap="round"/>
  </g>
  <g transform="matrix(0.88, 0, 0, 0.88, 688.190002, 502.549988)">
    <path style="stroke: none; stroke-width: 1; stroke-dasharray: none; stroke-linecap: butt; stroke-dashoffset: 0; stroke-linejoin: miter; stroke-miterlimit: 4; fill: rgb(84,104,255); fill-rule: nonzero; opacity: 1;" vector-effect="non-scaling-stroke" transform=" translate(-460.23, -144.14)" d="M 460.233 144.729 C 483.548 144.729 502.448 144.465 502.448 144.138 C 502.448 143.811 483.548 143.546 460.23299999999995 143.546 C 436.9179999999999 143.546 418.0179999999999 143.81099999999998 418.0179999999999 144.138 C 418.0179999999999 144.46500000000003 436.9179999999999 144.729 460.23299999999995 144.729 z" stroke-linecap="round"/>
  </g>
  <g transform="matrix(0.88, 0, 0, 0.88, 620.090027, 524.059998)">
    <path style="stroke: none; stroke-width: 1; stroke-dasharray: none; stroke-linecap: butt; stroke-dashoffset: 0; stroke-linejoin: miter; stroke-miterlimit: 4; fill: rgb(84,104,255); fill-rule: nonzero; opacity: 1;" vector-effect="non-scaling-stroke" transform=" translate(-383.15, -168.48)" d="M 383.152 169.073 C 406.467 169.073 425.36699999999996 168.80800000000002 425.36699999999996 168.482 C 425.36699999999996 168.155 406.467 167.89 383.15199999999993 167.89 C 359.8379999999999 167.89 340.93799999999993 168.15499999999997 340.93799999999993 168.482 C 340.93799999999993 168.808 359.8379999999999 169.073 383.15199999999993 169.073 z" stroke-linecap="round"/>
  </g>
  <g transform="matrix(0.88, 0, 0, 0.88, 702.570007, 524.059998)">
    <path style="stroke: none; stroke-width: 1; stroke-dasharray: none; stroke-linecap: butt; stroke-dashoffset: 0; stroke-linejoin: miter; stroke-miterlimit: 4; fill: rgb(84,104,255); fill-rule: nonzero; opacity: 1;" vector-effect="non-scaling-stroke" transform=" translate(-476.51, -168.48)" d="M 476.512 169.073 C 499.826 169.073 518.726 168.80800000000002 518.726 168.482 C 518.726 168.155 499.826 167.89 476.512 167.89 C 453.197 167.89 434.297 168.15499999999997 434.297 168.482 C 434.297 168.808 453.197 169.073 476.51200000000006 169.073 z" stroke-linecap="round"/>
  </g>
  <g transform="matrix(0.88, 0, 0, 0.88, 620.080017, 532.690002)">
    <path style="stroke: none; stroke-width: 1; stroke-dasharray: none; stroke-linecap: butt; stroke-dashoffset: 0; stroke-linejoin: miter; stroke-miterlimit: 4; fill: rgb(84,104,255); fill-rule: nonzero; opacity: 1;" vector-effect="non-scaling-stroke" transform=" translate(-383.14, -178.25)" d="M 383.141 178.845 C 406.45500000000004 178.845 425.356 178.58 425.356 178.253 C 425.356 177.92599999999996 406.455 177.66199999999998 383.14099999999996 177.66199999999998 C 359.82599999999996 177.66199999999998 340.92599999999993 177.926 340.92599999999993 178.253 C 340.92599999999993 178.57999999999998 359.8259999999999 178.845 383.14099999999996 178.845 z" stroke-linecap="round"/>
  </g>
  <g transform="matrix(0.88, 0, 0, 0.88, 623.700012, 456.140015)">
    <path style="stroke: none; stroke-width: 1; stroke-dasharray: none; stroke-linecap: butt; stroke-dashoffset: 0; stroke-linejoin: miter; stroke-miterlimit: 4; fill: rgb(84,104,255); fill-rule: nonzero; opacity: 1;" vector-effect="non-scaling-stroke" transform=" translate(-387.25, -91.62)" d="M 387.248 92.2085 C 410.562 92.2085 429.462 91.9436 429.462 91.6169 C 429.462 91.2902 410.562 91.0254 387.248 91.0254 C 363.933 91.0254 345.033 91.2902 345.033 91.6169 C 345.033 91.9436 363.933 92.2085 387.24800000000005 92.2085 z" stroke-linecap="round"/>
  </g>
  <g transform="matrix(0.88, 0, 0, 0.88, 631.5, 450)">
    <path style="stroke: none; stroke-width: 1; stroke-dasharray: none; stroke-linecap: butt; stroke-dashoffset: 0; stroke-linejoin: miter; stroke-miterlimit: 4; fill: rgb(84,104,255); fill-rule: nonzero; opacity: 1;" vector-effect="non-scaling-stroke" transform=" translate(-396.07, -84.67)" d="M 396.075 85.2578 C 402.081 85.2578 406.95 84.9929 406.95 84.6662 C 406.95 84.3395 402.081 84.0747 396.075 84.0747 C 390.06899999999996 84.0747 385.2 84.3395 385.2 84.6662 C 385.2 84.9929 390.06899999999996 85.2578 396.075 85.2578 z" stroke-linecap="round"/>
  </g>
  <g transform="matrix(0.88, 0, 0, 0.88, 592.97998, 494.589996)">
    <path style="stroke: none; stroke-width: 1; stroke-dasharray: none; stroke-linecap: butt; stroke-dashoffset: 0; stroke-linejoin: miter; stroke-miterlimit: 4; fill: rgb(84,104,255); fill-rule: nonzero; opacity: 1;" vector-effect="non-scaling-stroke" transform=" translate(-352.47, -135.14)" d="M 352.472 135.731 C 358.479 135.731 363.34799999999996 135.46699999999998 363.34799999999996 135.14 C 363.34799999999996 134.813 358.4789999999999 134.54799999999997 352.472 134.54799999999997 C 346.466 134.54799999999997 341.597 134.81299999999996 341.597 135.14 C 341.597 135.467 346.466 135.731 352.472 135.731 z" stroke-linecap="round"/>
  </g>
  <g transform="matrix(0.88, 0, 0, 0.88, 592.530029, 502.549988)">
    <path style="stroke: none; stroke-width: 1; stroke-dasharray: none; stroke-linecap: butt; stroke-dashoffset: 0; stroke-linejoin: miter; stroke-miterlimit: 4; fill: rgb(84,104,255); fill-rule: nonzero; opacity: 1;" vector-effect="non-scaling-stroke" transform=" translate(-351.96, -144.14)" d="M 351.961 144.729 C 357.967 144.729 362.836 144.465 362.836 144.138 C 362.836 143.811 357.967 143.546 351.961 143.546 C 345.954 143.546 341.086 143.81099999999998 341.086 144.138 C 341.086 144.46500000000003 345.954 144.729 351.961 144.729 z" stroke-linecap="round"/>
  </g>
  <g transform="matrix(0.88, 0, 0, 0.88, 659.76001, 425.109985)">
    <path style="stroke: none; stroke-width: 1; stroke-dasharray: none; stroke-linecap: butt; stroke-dashoffset: 0; stroke-linejoin: miter; stroke-miterlimit: 4; fill: rgb(84,104,255); fill-rule: nonzero; opacity: 1;" vector-effect="non-scaling-stroke" transform=" translate(-428.05, -56.5)" d="M 528.487 56.5002 C 528.487 56.8301 498.614 57.0918 433.717 57.0918 C 368.81899999999996 57.0918 327.61699999999996 56.8301 327.61699999999996 56.5002 C 327.61699999999996 56.1703 368.85299999999995 55.908699999999996 433.77399999999994 55.908699999999996 C 498.69399999999996 55.908699999999996 528.487 56.1703 528.487 56.5002 z" stroke-linecap="round"/>
  </g>
  <g transform="matrix(0.88, 0, 0, 0.88, 856.75, 557.080017)">
    <path style="stroke: none; stroke-width: 1; stroke-dasharray: none; stroke-linecap: butt; stroke-dashoffset: 0; stroke-linejoin: miter; stroke-miterlimit: 4; fill: rgb(84,104,255); fill-rule: nonzero; opacity: 1;" vector-effect="non-scaling-stroke" transform=" translate(-651.01, -205.86)" d="M 704.752 258.246 L 718.1859999999999 159.279 C 718.3689999999999 158.594 718.3929999999999 157.876 718.2539999999999 157.18 C 718.1149999999999 156.485 717.8179999999999 155.83100000000002 717.3859999999999 155.269 C 716.9529999999999 154.707 716.3969999999998 154.252 715.7609999999999 153.939 C 715.1239999999999 153.626 714.4249999999998 153.464 713.7149999999998 153.46599999999998 L 601.0969999999998 153.46599999999998 C 600.0709999999998 153.46399999999997 599.0729999999998 153.80399999999997 598.2609999999997 154.432 C 597.4499999999997 155.06099999999998 596.8709999999998 155.94099999999997 596.6149999999998 156.935 L 583.6809999999998 258.178 z" stroke-linecap="round"/>
  </g>
  <g transform="matrix(0.88, 0, 0, 0.88, 829.289978, 557.109985)">
    <path style="stroke: none; stroke-width: 1; stroke-dasharray: none; stroke-linecap: butt; stroke-dashoffset: 0; stroke-linejoin: miter; stroke-miterlimit: 4; fill: rgb(84,104,255); fill-rule: nonzero; opacity: 1;" vector-effect="non-scaling-stroke" transform=" translate(-619.94, -205.9)" d="M 596.535 156.924 L 584.0219999999999 250.534 L 521.434 250.534 L 521.434 258.258 L 706.424 258.258 L 718.3 159.28999999999996 C 718.473 158.60799999999998 718.4879999999999 157.89499999999995 718.3439999999999 157.20599999999996 C 718.1999999999999 156.51699999999997 717.9 155.87099999999995 717.467 155.31499999999997 C 717.035 154.75999999999996 716.481 154.31099999999998 715.8489999999999 154.00199999999998 C 715.2159999999999 153.69299999999998 714.521 153.533 713.818 153.534 L 600.995 153.534 C 599.9830000000001 153.533 598.998 153.864 598.192 154.476 C 597.3870000000001 155.088 596.8050000000001 155.949 596.535 156.924 z" stroke-linecap="round"/>
  </g>
  <g transform="matrix(0.88, 0, 0, 0.88, 829.289978, 557.109985)">
    <path style="stroke: none; stroke-width: 1; stroke-dasharray: none; stroke-linecap: butt; stroke-dashoffset: 0; stroke-linejoin: miter; stroke-miterlimit: 4; fill: rgb(60,62,86); fill-rule: nonzero; opacity: 1;" vector-effect="non-scaling-stroke" transform=" translate(-619.94, -205.9)" d="M 596.535 156.924 L 584.0219999999999 250.534 L 521.434 250.534 L 521.434 258.258 L 706.424 258.258 L 718.3 159.28999999999996 C 718.473 158.60799999999998 718.4879999999999 157.89499999999995 718.3439999999999 157.20599999999996 C 718.1999999999999 156.51699999999997 717.9 155.87099999999995 717.467 155.31499999999997 C 717.035 154.75999999999996 716.481 154.31099999999998 715.8489999999999 154.00199999999998 C 715.2159999999999 153.69299999999998 714.521 153.533 713.818 153.534 L 600.995 153.534 C 599.9830000000001 153.533 598.998 153.864 598.192 154.476 C 597.3870000000001 155.088 596.8050000000001 155.949 596.535 156.924 z" stroke-linecap="round"/>
  </g>
  <g transform="matrix(0.88, 0, 0, 0.88, 857.549988, 555.650024)">
    <path style="stroke: none; stroke-width: 1; stroke-dasharray: none; stroke-linecap: butt; stroke-dashoffset: 0; stroke-linejoin: miter; stroke-miterlimit: 4; fill: rgb(255,255,255); fill-rule: nonzero; opacity: 1;" vector-effect="non-scaling-stroke" transform=" translate(-651.92, -204.25)" d="M 702.544 250.807 L 589.79 250.807 L 600.7099999999999 157.68699999999998 L 714.045 157.68699999999998 z" stroke-linecap="round"/>
  </g>
  <g transform="matrix(0.88, 0, 0, 0.88, 857.549988, 555.650024)">
    <path style="stroke: none; stroke-width: 1; stroke-dasharray: none; stroke-linecap: butt; stroke-dashoffset: 0; stroke-linejoin: miter; stroke-miterlimit: 4; fill: rgb(0,0,0); fill-opacity: 0; fill-rule: nonzero; opacity: 0.1;" vector-effect="non-scaling-stroke" transform=" translate(-651.92, -204.25)" d="M 702.544 250.807 L 589.79 250.807 L 600.7099999999999 157.68699999999998 L 714.045 157.68699999999998 z" stroke-linecap="round"/>
  </g>
  <g transform="matrix(0.88, 0, 0, 0.88, 814.820007, 547.809998)">
    <path style="stroke: none; stroke-width: 1; stroke-dasharray: none; stroke-linecap: butt; stroke-dashoffset: 0; stroke-linejoin: miter; stroke-miterlimit: 4; fill: rgb(84,104,255); fill-rule: nonzero; opacity: 1;" vector-effect="non-scaling-stroke" transform=" translate(-603.55, -195.37)" d="M 603.831 195.402 C 605.465 179.55999999999997 606.663 166.70399999999998 606.5070000000001 166.688 C 606.3510000000001 166.672 604.8990000000001 179.50199999999998 603.2650000000001 195.344 C 601.6310000000001 211.186 600.4320000000001 224.042 600.589 224.058 C 600.745 224.07399999999998 602.196 211.244 603.831 195.402 z" stroke-linecap="round"/>
  </g>
  <g transform="matrix(0.88, 0, 0, 0.88, 826.200012, 525.01001)">
    <path style="stroke: none; stroke-width: 1; stroke-dasharray: none; stroke-linecap: butt; stroke-dashoffset: 0; stroke-linejoin: miter; stroke-miterlimit: 4; fill: rgb(84,104,255); fill-rule: nonzero; opacity: 1;" vector-effect="non-scaling-stroke" transform=" translate(-616.44, -169.56)" d="M 616.443 169.847 C 619.766 169.847 622.46 169.72 622.46 169.56300000000002 C 622.46 169.40600000000003 619.7660000000001 169.27800000000002 616.443 169.27800000000002 C 613.119 169.27800000000002 610.425 169.406 610.425 169.56300000000002 C 610.425 169.72000000000003 613.1189999999999 169.847 616.443 169.847 z" stroke-linecap="round"/>
  </g>
  <g transform="matrix(0.88, 0, 0, 0.88, 855.609985, 525.01001)">
    <path style="stroke: none; stroke-width: 1; stroke-dasharray: none; stroke-linecap: butt; stroke-dashoffset: 0; stroke-linejoin: miter; stroke-miterlimit: 4; fill: rgb(84,104,255); fill-rule: nonzero; opacity: 1;" vector-effect="non-scaling-stroke" transform=" translate(-649.72, -169.56)" d="M 649.716 169.847 C 662.966 169.847 673.707 169.72 673.707 169.56300000000002 C 673.707 169.40600000000003 662.966 169.27800000000002 649.716 169.27800000000002 C 636.466 169.27800000000002 625.725 169.406 625.725 169.56300000000002 C 625.725 169.72000000000003 636.466 169.847 649.716 169.847 z" stroke-linecap="round"/>
  </g>
  <g transform="matrix(0.88, 0, 0, 0.88, 824.940002, 551.849976)">
    <path style="stroke: none; stroke-width: 1; stroke-dasharray: none; stroke-linecap: butt; stroke-dashoffset: 0; stroke-linejoin: miter; stroke-miterlimit: 4; fill: rgb(84,104,255); fill-rule: nonzero; opacity: 1;" vector-effect="non-scaling-stroke" transform=" translate(-615.02, -199.94)" d="M 615.021 200.22 C 618.3439999999999 200.22 621.038 200.092 621.038 199.935 C 621.038 199.778 618.344 199.651 615.021 199.651 C 611.697 199.651 609.0029999999999 199.77800000000002 609.0029999999999 199.935 C 609.0029999999999 200.09199999999998 611.6969999999999 200.22 615.021 200.22 z" stroke-linecap="round"/>
  </g>
  <g transform="matrix(0.88, 0, 0, 0.88, 854.340027, 551.849976)">
    <path style="stroke: none; stroke-width: 1; stroke-dasharray: none; stroke-linecap: butt; stroke-dashoffset: 0; stroke-linejoin: miter; stroke-miterlimit: 4; fill: rgb(84,104,255); fill-rule: nonzero; opacity: 1;" vector-effect="non-scaling-stroke" transform=" translate(-648.29, -199.94)" d="M 648.294 200.22 C 661.544 200.22 672.285 200.092 672.285 199.935 C 672.285 199.778 661.544 199.651 648.294 199.651 C 635.044 199.651 624.303 199.77800000000002 624.303 199.935 C 624.303 200.09199999999998 635.044 200.22 648.294 200.22 z" stroke-linecap="round"/>
  </g>
  <g transform="matrix(0.88, 0, 0, 0.88, 839.909973, 564.210022)">
    <path style="stroke: none; stroke-width: 1; stroke-dasharray: none; stroke-linecap: butt; stroke-dashoffset: 0; stroke-linejoin: miter; stroke-miterlimit: 4; fill: rgb(84,104,255); fill-rule: nonzero; opacity: 1;" vector-effect="non-scaling-stroke" transform=" translate(-631.95, -213.93)" d="M 631.947 214.212 C 645.197 214.212 655.938 214.08499999999998 655.938 213.927 C 655.938 213.76999999999998 645.197 213.643 631.947 213.643 C 618.698 213.643 607.956 213.77 607.956 213.927 C 607.956 214.08499999999998 618.698 214.212 631.947 214.212 z" stroke-linecap="round"/>
  </g>
  <g transform="matrix(0.88, 0, 0, 0.88, 828.719971, 532.590027)">
    <path style="stroke: none; stroke-width: 1; stroke-dasharray: none; stroke-linecap: butt; stroke-dashoffset: 0; stroke-linejoin: miter; stroke-miterlimit: 4; fill: rgb(84,104,255); fill-rule: nonzero; opacity: 1;" vector-effect="non-scaling-stroke" transform=" translate(-619.3, -178.14)" d="M 619.298 178.424 C 623.978 178.424 627.773 178.297 627.773 178.14000000000001 C 627.773 177.98300000000003 623.9780000000001 177.85500000000002 619.298 177.85500000000002 C 614.617 177.85500000000002 610.823 177.983 610.823 178.14000000000001 C 610.823 178.29700000000003 614.617 178.424 619.298 178.424 z" stroke-linecap="round"/>
  </g>
  <g transform="matrix(0.88, 0, 0, 0.88, 828.340027, 543.690002)">
    <path style="stroke: none; stroke-width: 1; stroke-dasharray: none; stroke-linecap: butt; stroke-dashoffset: 0; stroke-linejoin: miter; stroke-miterlimit: 4; fill: rgb(84,104,255); fill-rule: nonzero; opacity: 1;" vector-effect="non-scaling-stroke" transform=" translate(-618.87, -190.71)" d="M 618.866 190.994 C 623.5459999999999 190.994 627.341 190.867 627.341 190.71 C 627.341 190.55300000000003 623.546 190.425 618.866 190.425 C 614.185 190.425 610.391 190.553 610.391 190.71 C 610.391 190.86700000000002 614.185 190.994 618.866 190.994 z" stroke-linecap="round"/>
  </g>
  <g transform="matrix(0.88, 0, 0, 0.88, 841, 559.559998)">
    <path style="stroke: none; stroke-width: 1; stroke-dasharray: none; stroke-linecap: butt; stroke-dashoffset: 0; stroke-linejoin: miter; stroke-miterlimit: 4; fill: rgb(84,104,255); fill-rule: nonzero; opacity: 1;" vector-effect="non-scaling-stroke" transform=" translate(-633.19, -208.67)" d="M 633.187 208.956 C 637.868 208.956 641.662 208.82899999999998 641.662 208.672 C 641.662 208.51500000000001 637.868 208.387 633.187 208.387 C 628.5070000000001 208.387 624.712 208.515 624.712 208.672 C 624.712 208.829 628.507 208.956 633.187 208.956 z" stroke-linecap="round"/>
  </g>
  <g transform="matrix(0.88, 0, 0, 0.88, 871.549988, 532.590027)">
    <path style="stroke: none; stroke-width: 1; stroke-dasharray: none; stroke-linecap: butt; stroke-dashoffset: 0; stroke-linejoin: miter; stroke-miterlimit: 4; fill: rgb(84,104,255); fill-rule: nonzero; opacity: 1;" vector-effect="non-scaling-stroke" transform=" translate(-667.77, -178.14)" d="M 667.769 178.424 C 679.725 178.424 689.417 178.297 689.417 178.14000000000001 C 689.417 177.98300000000003 679.725 177.85500000000002 667.769 177.85500000000002 C 655.813 177.85500000000002 646.121 177.983 646.121 178.14000000000001 C 646.121 178.29700000000003 655.813 178.424 667.769 178.424 z" stroke-linecap="round"/>
  </g>
  <g transform="matrix(0.88, 0, 0, 0.88, 859.73999, 544.340027)">
    <path style="stroke: none; stroke-width: 1; stroke-dasharray: none; stroke-linecap: butt; stroke-dashoffset: 0; stroke-linejoin: miter; stroke-miterlimit: 4; fill: rgb(84,104,255); fill-rule: nonzero; opacity: 1;" vector-effect="non-scaling-stroke" transform=" translate(-654.4, -191.44)" d="M 654.403 191.722 C 666.359 191.722 676.051 191.595 676.051 191.43800000000002 C 676.051 191.28100000000003 666.359 191.15300000000002 654.403 191.15300000000002 C 642.447 191.15300000000002 632.755 191.281 632.755 191.43800000000002 C 632.755 191.59500000000003 642.447 191.722 654.403 191.722 z" stroke-linecap="round"/>
  </g>
  <g transform="matrix(0.88, 0, 0, 0.88, 872.909973, 559.559998)">
    <path style="stroke: none; stroke-width: 1; stroke-dasharray: none; stroke-linecap: butt; stroke-dashoffset: 0; stroke-linejoin: miter; stroke-miterlimit: 4; fill: rgb(84,104,255); fill-rule: nonzero; opacity: 1;" vector-effect="non-scaling-stroke" transform=" translate(-669.3, -208.67)" d="M 669.305 208.956 C 681.261 208.956 690.953 208.82899999999998 690.953 208.672 C 690.953 208.51500000000001 681.261 208.387 669.305 208.387 C 657.3489999999999 208.387 647.6569999999999 208.515 647.6569999999999 208.672 C 647.6569999999999 208.829 657.3489999999999 208.956 669.305 208.956 z" stroke-linecap="round"/>
  </g>
  <g transform="matrix(0.88, 0, 0, 0.88, 837.98999, 573.159973)">
    <path style="stroke: none; stroke-width: 1; stroke-dasharray: none; stroke-linecap: butt; stroke-dashoffset: 0; stroke-linejoin: miter; stroke-miterlimit: 4; fill: rgb(84,104,255); fill-rule: nonzero; opacity: 1;" vector-effect="non-scaling-stroke" transform=" translate(-629.77, -224.06)" d="M 629.775 224.347 C 641.731 224.347 651.423 224.22 651.423 224.06300000000002 C 651.423 223.90600000000003 641.731 223.77800000000002 629.775 223.77800000000002 C 617.819 223.77800000000002 608.127 223.906 608.127 224.06300000000002 C 608.127 224.22000000000003 617.819 224.347 629.775 224.347 z" stroke-linecap="round"/>
  </g>
  <g transform="matrix(0.88, 0, 0, 0.88, 880.280029, 573.159973)">
    <path style="stroke: none; stroke-width: 1; stroke-dasharray: none; stroke-linecap: butt; stroke-dashoffset: 0; stroke-linejoin: miter; stroke-miterlimit: 4; fill: rgb(84,104,255); fill-rule: nonzero; opacity: 1;" vector-effect="non-scaling-stroke" transform=" translate(-677.64, -224.06)" d="M 677.643 224.347 C 689.599 224.347 699.291 224.22 699.291 224.06300000000002 C 699.291 223.90600000000003 689.599 223.77800000000002 677.643 223.77800000000002 C 665.688 223.77800000000002 655.996 223.906 655.996 224.06300000000002 C 655.996 224.22000000000003 665.688 224.347 677.643 224.347 z" stroke-linecap="round"/>
  </g>
  <g transform="matrix(0.88, 0, 0, 0.88, 880.280029, 582.210022)">
    <path style="stroke: none; stroke-width: 1; stroke-dasharray: none; stroke-linecap: butt; stroke-dashoffset: 0; stroke-linejoin: miter; stroke-miterlimit: 4; fill: rgb(84,104,255); fill-rule: nonzero; opacity: 1;" vector-effect="non-scaling-stroke" transform=" translate(-677.64, -234.3)" d="M 677.643 234.585 C 689.599 234.585 699.291 234.458 699.291 234.30100000000002 C 699.291 234.14400000000003 689.599 234.01700000000002 677.643 234.01700000000002 C 665.688 234.01700000000002 655.996 234.14400000000003 655.996 234.30100000000002 C 655.996 234.458 665.688 234.585 677.643 234.585 z" stroke-linecap="round"/>
  </g>
  <g transform="matrix(0.88, 0, 0, 0.88, 840.070007, 585.22998)">
    <path style="stroke: none; stroke-width: 1; stroke-dasharray: none; stroke-linecap: butt; stroke-dashoffset: 0; stroke-linejoin: miter; stroke-miterlimit: 4; fill: rgb(84,104,255); fill-rule: nonzero; opacity: 1;" vector-effect="non-scaling-stroke" transform=" translate(-632.14, -237.71)" d="M 632.141 237.998 C 644.097 237.998 653.789 237.87099999999998 653.789 237.714 C 653.789 237.55700000000002 644.097 237.429 632.141 237.429 C 620.185 237.429 610.4929999999999 237.557 610.4929999999999 237.714 C 610.4929999999999 237.871 620.185 237.998 632.141 237.998 z" stroke-linecap="round"/>
  </g>
  <g transform="matrix(0.88, 0, 0, 0.88, 880.280029, 588.23999)">
    <path style="stroke: none; stroke-width: 1; stroke-dasharray: none; stroke-linecap: butt; stroke-dashoffset: 0; stroke-linejoin: miter; stroke-miterlimit: 4; fill: rgb(84,104,255); fill-rule: nonzero; opacity: 1;" vector-effect="non-scaling-stroke" transform=" translate(-677.64, -241.13)" d="M 677.643 241.411 C 689.599 241.411 699.291 241.28300000000002 699.291 241.126 C 699.291 240.969 689.599 240.842 677.643 240.842 C 665.688 240.842 655.996 240.96900000000002 655.996 241.126 C 655.996 241.283 665.688 241.411 677.643 241.411 z" stroke-linecap="round"/>
  </g>
  <g transform="matrix(0.88, 0, 0, 0.88, 837.98999, 577.590027)">
    <path style="stroke: none; stroke-width: 1; stroke-dasharray: none; stroke-linecap: butt; stroke-dashoffset: 0; stroke-linejoin: miter; stroke-miterlimit: 4; fill: rgb(84,104,255); fill-rule: nonzero; opacity: 1;" vector-effect="non-scaling-stroke" transform=" translate(-629.77, -229.08)" d="M 629.775 229.364 C 641.731 229.364 651.423 229.23600000000002 651.423 229.079 C 651.423 228.922 641.731 228.79500000000002 629.775 228.79500000000002 C 617.819 228.79500000000002 608.127 228.92200000000003 608.127 229.079 C 608.127 229.236 617.819 229.364 629.775 229.364 z" stroke-linecap="round"/>
  </g>
  <g transform="matrix(0.88, 0, 0, 0.88, 839.840027, 535.780029)">
    <path style="stroke: none; stroke-width: 1; stroke-dasharray: none; stroke-linecap: butt; stroke-dashoffset: 0; stroke-linejoin: miter; stroke-miterlimit: 4; fill: rgb(84,104,255); fill-rule: nonzero; opacity: 1;" vector-effect="non-scaling-stroke" transform=" translate(-631.88, -181.75)" d="M 631.879 182.03 C 643.835 182.03 653.527 181.903 653.527 181.746 C 653.527 181.58900000000003 643.835 181.461 631.879 181.461 C 619.923 181.461 610.231 181.589 610.231 181.746 C 610.231 181.90300000000002 619.923 182.03 631.879 182.03 z" stroke-linecap="round"/>
  </g>
  <g transform="matrix(0.88, 0, 0, 0.88, 843.840027, 532.630005)">
    <path style="stroke: none; stroke-width: 1; stroke-dasharray: none; stroke-linecap: butt; stroke-dashoffset: 0; stroke-linejoin: miter; stroke-miterlimit: 4; fill: rgb(84,104,255); fill-rule: nonzero; opacity: 1;" vector-effect="non-scaling-stroke" transform=" translate(-636.41, -178.19)" d="M 636.407 178.47 C 639.485 178.47 641.981 178.342 641.981 178.185 C 641.981 178.028 639.485 177.901 636.407 177.901 C 633.3280000000001 177.901 630.8330000000001 178.02800000000002 630.8330000000001 178.185 C 630.8330000000001 178.34199999999998 633.3280000000001 178.47 636.407 178.47 z" stroke-linecap="round"/>
  </g>
  <g transform="matrix(0.88, 0, 0, 0.88, 824.080017, 555.48999)">
    <path style="stroke: none; stroke-width: 1; stroke-dasharray: none; stroke-linecap: butt; stroke-dashoffset: 0; stroke-linejoin: miter; stroke-miterlimit: 4; fill: rgb(84,104,255); fill-rule: nonzero; opacity: 1;" vector-effect="non-scaling-stroke" transform=" translate(-614.04, -204.05)" d="M 614.043 204.337 C 617.121 204.337 619.617 204.20999999999998 619.617 204.053 C 619.617 203.89600000000002 617.121 203.769 614.043 203.769 C 610.964 203.769 608.469 203.89600000000002 608.469 204.053 C 608.469 204.20999999999998 610.964 204.337 614.043 204.337 z" stroke-linecap="round"/>
  </g>
  <g transform="matrix(0.88, 0, 0, 0.88, 823.849976, 559.559998)">
    <path style="stroke: none; stroke-width: 1; stroke-dasharray: none; stroke-linecap: butt; stroke-dashoffset: 0; stroke-linejoin: miter; stroke-miterlimit: 4; fill: rgb(84,104,255); fill-rule: nonzero; opacity: 1;" vector-effect="non-scaling-stroke" transform=" translate(-613.78, -208.67)" d="M 613.781 208.956 C 616.8589999999999 208.956 619.3549999999999 208.82899999999998 619.3549999999999 208.672 C 619.3549999999999 208.51500000000001 616.8589999999999 208.387 613.781 208.387 C 610.702 208.387 608.207 208.515 608.207 208.672 C 608.207 208.829 610.702 208.956 613.781 208.956 z" stroke-linecap="round"/>
  </g>
  <g transform="matrix(0.88, 0, 0, 0.88, 863.200012, 518.330017)">
    <path style="stroke: none; stroke-width: 1; stroke-dasharray: none; stroke-linecap: butt; stroke-dashoffset: 0; stroke-linejoin: miter; stroke-miterlimit: 4; fill: rgb(84,104,255); fill-rule: nonzero; opacity: 1;" vector-effect="non-scaling-stroke" transform=" translate(-658.32, -162)" d="M 709.836 162.077 C 709.836 162.237 700.36 162.282 667.087 162.282 C 633.813 162.282 606.796 162.157 606.796 161.99800000000002 C 606.796 161.83900000000003 633.768 161.71300000000002 667.087 161.71300000000002 C 700.406 161.71300000000002 709.836 161.91800000000003 709.836 162.07700000000003 z" stroke-linecap="round"/>
  </g>
  <g transform="matrix(0.88, 0, 0, 0.88, 606.700012, 906.849976)">
    <path style="stroke: none; stroke-width: 1; stroke-dasharray: none; stroke-linecap: butt; stroke-dashoffset: 0; stroke-linejoin: miter; stroke-miterlimit: 4; fill: rgb(255,255,255); fill-rule: nonzero; opacity: 1;" vector-effect="non-scaling-stroke" transform=" translate(-368, -601.74)" d="M 736 595.487 L 0 595.487 L 0 608 L 736 608 z" stroke-linecap="round"/>
  </g>
  <g transform="matrix(0.88, 0, 0, 0.88, 606.700012, 906.849976)">
    <path style="stroke: none; stroke-width: 1; stroke-dasharray: none; stroke-linecap: butt; stroke-dashoffset: 0; stroke-linejoin: miter; stroke-miterlimit: 4; fill: rgb(123,63,129); fill-rule: nonzero; opacity: 0.77;" vector-effect="non-scaling-stroke" transform=" translate(-368, -601.74)" d="M 736 595.487 L 0 595.487 L 0 608 L 736 608 z" stroke-linecap="round"/>
  </g>
</svg>